<?xml version="1.0" encoding="UTF-8"?><svg id="logo" xmlns="http://www.w3.org/2000/svg" width="754.61" height="133.52" viewBox="0 0 754.61 133.52"><path d="m80.74,112.32h3.13v20.77h-3.24v-13.31l-6.37,13.31h-1.38l-6.36-13.31v13.31h-3.26v-20.77h3.13l7.18,14.71,7.18-14.71Zm17.58,20.77h13.41v-3.26h-9.94v-5.87h8.21v-3.26h-8.21v-5.12h9.94v-3.26h-13.41v20.77Zm-27.19-50.77h-18.62l-3.92,8.29h-8.42l17.41-36.14h8.55l17.41,36.14h-8.52l-3.87-8.29Zm-3.18-6.72l-6.13-13.07-6.17,13.07h12.3Zm126.15,49.62l3.84,7.87h-3.94l-3.52-7.25h-4.94v7.25h-3.48v-20.77h8.58c.2,0,.46,0,.78.02.32.01.61.05.88.09,1.2.18,2.19.58,2.98,1.2.78.62,1.37,1.39,1.75,2.33.38.94.57,1.98.57,3.12,0,1.69-.43,3.15-1.28,4.36-.55.78-1.29,1.37-2.22,1.77Zm0-6.13c0-.44-.07-.9-.21-1.36-.14-.47-.37-.88-.71-1.25-.33-.37-.79-.62-1.36-.76-.2-.06-.42-.09-.66-.11-.24-.01-.46-.02-.65-.02h-4.96v7.01h4.96c.19,0,.41,0,.65-.03.24-.02.46-.06.66-.12.58-.14,1.03-.4,1.36-.76.33-.37.57-.78.71-1.24.14-.46.21-.91.21-1.36Zm-36.35-43.61v-21.01h0s-7.81,0-7.81,0v14.19h-20.19v-14.19h-7.81v36.15h7.81v-15.13h20.19v15.13h7.81v-15.13Zm-108.99,41.58c.79,1.62,1.19,3.51,1.19,5.65s-.4,4.03-1.19,5.65c-.79,1.62-1.93,2.89-3.42,3.8-1.49.91-3.27,1.36-5.34,1.36s-3.86-.45-5.34-1.36c-1.48-.91-2.62-2.17-3.41-3.8-.79-1.62-1.19-3.51-1.19-5.65s.4-4.03,1.19-5.65c.79-1.62,1.93-2.89,3.41-3.8,1.48-.91,3.26-1.36,5.34-1.36s3.86.45,5.34,1.36c1.49.91,2.62,2.18,3.42,3.8Zm-2.49,5.65c0-1.52-.23-2.84-.7-3.96-.47-1.12-1.16-1.99-2.09-2.62-.93-.62-2.09-.95-3.48-.97-1.39,0-2.55.3-3.48.92-.92.63-1.62,1.5-2.08,2.64-.47,1.13-.7,2.46-.7,3.98s.23,2.84.69,3.96c.46,1.12,1.16,1.99,2.08,2.62.93.63,2.09.95,3.48.97,1.39,0,2.55-.3,3.48-.92.93-.62,1.62-1.5,2.09-2.64.47-1.13.7-2.46.7-3.98ZM107.81,22.82l8.61,14.05h-8.5l-7.89-13.25h-11.11v13.25h-7.81V.73h21.31c8.14,0,13,4.29,13,11.47,0,5.22-2.77,9.08-7.61,10.62Zm-.15-10.57c0-3.1-2.15-4.8-6.04-4.8h-12.7v9.55h12.7c3.84,0,6.04-1.73,6.04-4.75Zm31.58,110.59c-.59-.41-1.2-.74-1.83-.97-.63-.23-1.21-.41-1.72-.55l-3.72-1.04c-.47-.12-.94-.28-1.39-.47-.46-.19-.84-.44-1.15-.76-.31-.32-.46-.74-.46-1.25,0-.54.18-1.01.54-1.41.36-.4.84-.71,1.43-.93.59-.22,1.23-.32,1.93-.31.71.02,1.38.16,2.01.43.63.27,1.16.66,1.6,1.18.44.51.73,1.14.89,1.87l3.74-.65c-.31-1.28-.84-2.37-1.59-3.27-.75-.9-1.68-1.59-2.8-2.07-1.12-.48-2.38-.72-3.81-.73-1.4,0-2.68.21-3.83.66-1.15.45-2.06,1.13-2.74,2.04-.68.91-1.02,2.03-1.02,3.37,0,.91.15,1.68.45,2.3.3.62.69,1.13,1.17,1.53.48.4.98.71,1.51.94.53.23,1.03.41,1.49.54l5.36,1.59c.38.12.72.25,1.02.41.29.16.53.33.72.53.19.19.33.41.43.66.1.25.14.51.14.8,0,.64-.2,1.19-.61,1.63-.41.44-.94.78-1.59,1.01-.65.23-1.35.35-2.09.35-1.25,0-2.35-.34-3.31-1.01-.96-.67-1.59-1.62-1.9-2.86l-3.61.55c.21,1.36.71,2.53,1.49,3.51.78.99,1.78,1.74,3,2.27,1.22.53,2.58.79,4.1.79,1.07,0,2.09-.13,3.06-.4.98-.27,1.84-.67,2.6-1.21.76-.54,1.36-1.21,1.81-2.03.45-.81.67-1.76.67-2.83s-.19-1.89-.57-2.57c-.38-.67-.86-1.22-1.45-1.63Zm15.56,10.24h13.41v-3.26h-9.94v-5.87h8.21v-3.26h-8.21v-5.12h9.94v-3.26h-13.41v20.77Zm24.36-102.44c-3.62,0-10.34-.91-14.63-7.03l-.19-.27-4.97,5.5.11.17c3.23,4.95,11.21,8.4,19.4,8.4,10.53,0,17.07-4.59,17.07-11.97,0-7.85-6.83-9.27-16.47-10.43-8.4-1.03-10.08-1.6-10.08-3.96,0-2.01,1.79-4.16,8-4.16,5.62,0,10.29,1.99,12.81,5.45l.18.25,4.94-5.04-.13-.18c-3.11-4.38-9.96-7.2-17.44-7.2-9.57,0-15.99,4.67-15.99,11.62,0,7.53,6.98,8.99,14.75,9.93l.18.02c9.28,1.07,11.34,1.36,11.34,4.48,0,2.63-3.3,4.4-8.87,4.4ZM254.07.73h-7.81v36.15h7.81V.73Zm-44.07,36.14v-15.13h20.18v15.13h7.81V.73h0s-7.81,0-7.81,0v14.19h-20.18V.73h-7.81v36.15h7.81Zm60.13,0h-7.81V.73h21.31c8.14,0,13,4.29,13,11.47,0,5.22-2.77,9.08-7.61,10.62l8.61,14.05h-8.5l-7.89-13.25h-11.11v13.25Zm0-19.87h12.7c3.84,0,6.04-1.73,6.04-4.75s-2.15-4.8-6.04-4.8h-12.7v9.55Zm-196.02,13.05h-25.25v-8.31h22.59v-6.77h-22.59v-7.42h25.25V.73h-32.96v36.14h32.96v-6.82ZM13.31,121.06H3.48v-8.74H0v20.77h3.48v-8.77h9.84v8.77h3.46v-20.77h-3.46v8.74Zm9.73-84.18H0V.73h22.25c7.37,0,11.6,3.55,11.6,9.74,0,4.51-2.84,6.7-4.52,7.61,3.44,1.46,5.55,4.69,5.55,8.56,0,6.31-4.54,10.23-11.84,10.23ZM7.52,15.22h13.59c4.38,0,5.3-2.15,5.3-3.96,0-2.55-1.88-3.96-5.3-3.96H7.52v7.91Zm14.62,15.03c3.18,0,5.16-1.65,5.16-4.3s-2.02-4.3-5.16-4.3H7.52v8.61h14.62Zm13.68,45.22v-21.01h0s-7.81,0-7.81,0v14.19H7.81v-14.19H0v36.15h7.81v-15.13h20.19v15.13h7.81v-15.13Zm93.51-38.6h.43v-11.04l5.3-4.67,13.87,15.71h10.27l-18.42-20.78L158.23.73h-10.97l-17.5,15.88V.73h-7.81v36.14h7.38Zm-49.92,24.4h14.58v29.32h7.86v-29.32h14.58v-6.82h-37.02v6.82Zm252.14,61.57c-.59-.41-1.2-.74-1.83-.97-.63-.23-1.21-.41-1.72-.55l-3.72-1.04c-.47-.12-.94-.28-1.39-.47-.46-.19-.84-.44-1.15-.76-.31-.32-.46-.74-.46-1.25,0-.54.18-1.01.54-1.41.36-.4.84-.71,1.43-.93.59-.22,1.23-.32,1.93-.31.71.02,1.38.16,2.01.43.63.27,1.16.66,1.6,1.18.44.51.73,1.14.89,1.87l3.74-.65c-.31-1.28-.84-2.37-1.59-3.27-.75-.9-1.68-1.59-2.8-2.07-1.12-.48-2.38-.72-3.81-.73-1.4,0-2.68.21-3.83.66-1.15.45-2.06,1.13-2.74,2.04-.68.91-1.02,2.03-1.02,3.37,0,.91.15,1.68.45,2.3.3.62.69,1.13,1.17,1.53.48.4.98.71,1.51.94.53.23,1.03.41,1.49.54l5.36,1.59c.38.12.72.25,1.02.41.29.16.53.33.72.53.19.19.33.41.43.66.1.25.14.51.14.8,0,.64-.2,1.19-.61,1.63-.41.44-.94.78-1.59,1.01-.65.23-1.35.35-2.09.35-1.25,0-2.35-.34-3.31-1.01-.96-.67-1.59-1.62-1.9-2.86l-3.61.55c.21,1.36.71,2.53,1.49,3.51.78.99,1.78,1.74,3,2.27,1.22.53,2.58.79,4.1.79,1.07,0,2.09-.13,3.06-.4.98-.27,1.84-.67,2.6-1.21.76-.54,1.36-1.21,1.81-2.03.45-.81.67-1.76.67-2.83s-.19-1.89-.57-2.57c-.38-.67-.86-1.22-1.45-1.63Zm-40.91,10.24h13.41v-3.26h-9.94v-5.87h8.21v-3.26h-8.21v-5.12h9.94v-3.26h-13.41v20.77Zm1.25-42.48l-3.87-8.29h-18.62l-3.92,8.29h-8.42l17.41-36.14h8.55l17.41,36.14h-8.52Zm-7.06-15.01l-6.13-13.07-6.17,13.07h12.3Zm-20.6,40.5c.93-.62,2.09-.94,3.48-.94,1.55,0,2.81.38,3.78,1.15.97.76,1.66,1.82,2.06,3.18l3.5-.97c-.64-2.03-1.76-3.64-3.36-4.84s-3.59-1.8-5.98-1.8c-2.08,0-3.86.45-5.34,1.36-1.48.91-2.62,2.18-3.41,3.8-.79,1.62-1.19,3.51-1.19,5.65s.4,4.03,1.19,5.65c.79,1.62,1.93,2.89,3.41,3.8,1.48.91,3.26,1.36,5.34,1.36,2.39,0,4.39-.6,5.98-1.8,1.6-1.2,2.72-2.81,3.36-4.84l-3.5-.97c-.4,1.35-1.09,2.4-2.06,3.17-.97.77-2.23,1.15-3.78,1.15-1.39,0-2.56-.31-3.49-.94-.93-.62-1.63-1.5-2.1-2.63-.47-1.13-.7-2.45-.7-3.97,0-1.52.25-2.84.71-3.97.47-1.13,1.16-2.01,2.09-2.63Zm63.07-61.64h-.52l-11.35,13.81-11.35-13.81h-9.55l16.93,20.58v15.56h7.81v-15.56l16.88-20.58h-8.84Zm44.65,78.64h2.67V.73h-2.67v132.37Zm-68.78-96.23h32.96v-6.82h-25.25v-8.31h22.59v-6.77h-22.59v-7.42h25.25V.73h-32.96v36.14Zm-62.46,96.21h3.48v-20.77h-3.48v20.77Zm19.61-78.63l-11.89,36.14h-8.36l-7.98-26.6-8.07,26.6h-8.32l-.06-.18-11.83-35.97h8.19l8.28,25.9,7.89-25.9h7.97l7.84,25.9,8.28-25.9h8.04Zm-39.9,26.21h-.02s.01.04.01.04v-.04Zm-32.33-26.21l17.41,36.14h-8.52l-3.87-8.29h-18.62l-3.92,8.29h-8.42l17.41-36.14h8.55Zm1.83,21.14l-6.13-13.07-6.17,13.07h12.3Zm28.82,54.12l-5.48-17.39h-3.58l6.55,20.77h5.09l6.55-20.77h-3.58l-5.55,17.39Zm209.19-95.82c-1.49.62-3.2.93-5.14.93-2.86,0-5.31-.69-7.34-2.08-2.03-1.39-3.36-3.29-3.98-5.69l-2.96.5c.43,2.07,1.3,3.86,2.6,5.37,1.3,1.5,2.93,2.67,4.92,3.49,1.98.82,4.21,1.23,6.68,1.23,1.89,0,3.62-.24,5.19-.71,1.57-.48,2.93-1.16,4.09-2.06,1.15-.89,2.04-1.99,2.66-3.27.62-1.29.93-2.74.93-4.36s-.31-3.06-.92-4.18c-.61-1.11-1.38-2.01-2.3-2.68-.92-.68-1.86-1.2-2.81-1.57-.95-.37-1.77-.65-2.46-.85l-7.27-2.16c-.97-.28-1.99-.65-3.05-1.1-1.06-.45-1.96-1.07-2.68-1.87-.73-.79-1.09-1.86-1.09-3.2s.38-2.44,1.15-3.46c.77-1.02,1.83-1.83,3.17-2.43,1.35-.6,2.9-.89,4.65-.88,1.82,0,3.48.34,4.97,1.03,1.49.69,2.71,1.65,3.67,2.88.96,1.24,1.56,2.68,1.79,4.34l2.98-.53c-.35-2.16-1.13-4.02-2.35-5.59-1.21-1.57-2.76-2.79-4.65-3.65-1.89-.86-4.02-1.3-6.4-1.32-2.36,0-4.44.41-6.26,1.22-1.81.81-3.24,1.94-4.28,3.4-1.04,1.45-1.56,3.15-1.56,5.09,0,1.09.17,2.07.51,2.96.34.89.84,1.68,1.48,2.37.64.69,1.44,1.3,2.38,1.83.94.53,2.02.97,3.22,1.32l9.08,2.71c.62.18,1.28.42,1.98.71.7.29,1.36.68,1.98,1.15s1.12,1.08,1.52,1.82c.39.74.59,1.65.59,2.73,0,1.5-.42,2.82-1.25,3.95-.84,1.13-2,2-3.49,2.62Zm20.27,2.98h2.91v-15.25l12.01-20.87h-3.34l-10.13,17.56-10.16-17.56h-3.34l12.04,20.87v15.25Zm21.85-31.03l20.92,31.03h2.91V.75h-2.91v30.98L470.02.75h-2.91v36.12h2.91V5.84Zm53.68,28.22h-19.44v-13.97h16.43v-2.81h-16.43V3.56h19.44V.75h-22.32v36.12h22.32v-2.81Zm9.41,2.81h-2.88V.75h13.62c.35,0,.73.01,1.14.04.41.02.84.08,1.29.16,1.81.28,3.36.93,4.65,1.94,1.3,1.01,2.29,2.28,2.97,3.81.69,1.53,1.03,3.21,1.03,5.05,0,2.66-.71,4.98-2.13,6.95-1.08,1.5-2.48,2.58-4.21,3.25l7.27,14.91h-3.39l-6.82-14.07h-12.54v14.07Zm0-16.91h10.69c.3,0,.65-.02,1.04-.05.39-.03.79-.08,1.19-.15,1.3-.27,2.39-.8,3.26-1.59.87-.79,1.52-1.75,1.96-2.87.43-1.12.65-2.3.65-3.54s-.22-2.41-.65-3.52c-.44-1.11-1.09-2.07-1.96-2.86-.87-.79-1.96-1.32-3.26-1.59-.4-.08-.8-.14-1.19-.18-.39-.03-.74-.05-1.04-.05h-10.69v16.4Zm58.67.83c0-.22,0-.53-.01-.93,0-.4-.04-.81-.09-1.23h-11.99v2.63h8.98c-.07,2.73-.54,5.1-1.42,7.14s-2.22,3.61-4.01,4.73c-1.8,1.12-4.11,1.67-6.94,1.66-2.96,0-5.43-.68-7.42-2.04-1.99-1.36-3.48-3.24-4.48-5.64-1-2.4-1.48-5.16-1.44-8.29.03-3.13.54-5.89,1.53-8.3.99-2.41,2.46-4.28,4.43-5.63,1.96-1.35,4.43-2.02,7.39-2.02,2.74.02,5.05.69,6.94,2.02,1.88,1.33,3.24,3.11,4.08,5.33l2.86-.88c-.95-2.78-2.6-5.02-4.95-6.72-2.35-1.71-5.35-2.56-8.99-2.56s-6.51.79-8.93,2.36c-2.42,1.57-4.27,3.77-5.53,6.58-1.26,2.82-1.89,6.09-1.89,9.82,0,2.81.36,5.37,1.08,7.68s1.77,4.29,3.16,5.94c1.39,1.66,3.1,2.93,5.13,3.84,2.03.9,4.36,1.35,6.99,1.35,3.54,0,6.47-.74,8.77-2.21,2.3-1.47,4-3.48,5.12-6.02,1.11-2.54,1.67-5.41,1.67-8.6Zm12.54,16.08h2.91v-15.25l12.01-20.87h-3.34l-10.13,17.56-10.16-17.56h-3.34l12.04,20.87v15.25Zm-175.53,38.71l7.27,14.91h-3.39l-6.82-14.07h-12.54v14.07h-2.88v-36.12h13.62c.35,0,.73.01,1.14.04.41.02.84.08,1.29.16,1.81.28,3.36.93,4.65,1.94,1.3,1.01,2.29,2.28,2.97,3.81.69,1.53,1.03,3.21,1.03,5.05,0,2.66-.71,4.98-2.13,6.95-1.08,1.5-2.48,2.58-4.21,3.25Zm-3.75-2.04c.39-.03.79-.08,1.19-.15,1.3-.27,2.39-.8,3.26-1.59.87-.79,1.52-1.75,1.96-2.87.43-1.12.65-2.3.65-3.54s-.22-2.41-.65-3.52c-.44-1.11-1.09-2.07-1.96-2.86-.87-.79-1.96-1.32-3.26-1.59-.4-.08-.8-.14-1.19-.18-.39-.03-.74-.05-1.04-.05h-10.69v16.4h10.69c.3,0,.65-.02,1.04-.05Zm17.04,16.96h22.32v-2.81h-19.44v-13.97h16.43v-2.81h-16.43v-13.72h19.44v-2.81h-22.32v36.12Zm42.72-36.12l12.79,36.12h-3.06l-3.22-9.08h-16.62l-3.2,9.08h-3.06l12.79-36.12h3.59Zm5.54,24.31l-7.37-20.75-7.32,20.75h14.69Zm15.66-24.31h-2.88v36.12h20.44v-2.81h-17.56v-33.31Zm14.3,2.81h12.94v33.31h2.88v-33.31h12.94v-2.81h-28.77v2.81Zm44.77,14.75l-10.16-17.56h-3.34l12.04,20.87v15.25h2.91v-15.25l12.01-20.87h-3.34l-10.13,17.56Zm55.81.33h-11.99v2.63h8.98c-.07,2.73-.54,5.1-1.42,7.14s-2.22,3.61-4.01,4.73c-1.8,1.12-4.11,1.67-6.94,1.66-2.96,0-5.43-.68-7.42-2.04-1.99-1.36-3.48-3.24-4.48-5.64-1-2.4-1.48-5.16-1.44-8.29.03-3.13.54-5.89,1.53-8.3.99-2.41,2.46-4.28,4.43-5.63,1.96-1.35,4.43-2.02,7.39-2.02,2.74.02,5.05.69,6.94,2.02,1.88,1.33,3.24,3.11,4.08,5.33l2.86-.88c-.95-2.78-2.6-5.02-4.95-6.72-2.35-1.71-5.35-2.56-8.99-2.56s-6.51.79-8.93,2.36c-2.42,1.57-4.27,3.77-5.53,6.58-1.26,2.82-1.89,6.09-1.89,9.82,0,2.81.36,5.37,1.08,7.68s1.77,4.29,3.16,5.94c1.39,1.66,3.1,2.93,5.13,3.84,2.03.9,4.36,1.35,6.99,1.35,3.54,0,6.47-.74,8.77-2.21,2.3-1.47,4-3.48,5.12-6.02,1.11-2.54,1.67-5.41,1.67-8.6,0-.22,0-.53-.01-.93,0-.4-.04-.81-.09-1.23Zm23.98,3.32l7.27,14.91h-3.39l-6.82-14.07h-12.54v14.07h-2.88v-36.12h13.62c.35,0,.73.01,1.14.04.41.02.84.08,1.29.16,1.81.28,3.36.93,4.65,1.94,1.3,1.01,2.29,2.28,2.97,3.81.69,1.53,1.03,3.21,1.03,5.05,0,2.66-.71,4.98-2.13,6.95-1.08,1.5-2.48,2.58-4.21,3.25Zm-3.75-2.04c.39-.03.79-.08,1.19-.15,1.3-.27,2.39-.8,3.26-1.59.87-.79,1.52-1.75,1.96-2.87.43-1.12.65-2.3.65-3.54s-.22-2.41-.65-3.52c-.44-1.11-1.09-2.07-1.96-2.86-.87-.79-1.96-1.32-3.26-1.59-.4-.08-.8-.14-1.19-.18-.39-.03-.74-.05-1.04-.05h-10.69v16.4h10.69c.3,0,.65-.02,1.04-.05Zm46.01-10.89c1.24,2.83,1.86,6.09,1.86,9.78s-.62,6.96-1.86,9.78c-1.24,2.83-3.07,5.04-5.51,6.63-2.43,1.6-5.45,2.4-9.04,2.4s-6.61-.8-9.06-2.4c-2.44-1.6-4.28-3.81-5.52-6.63-1.24-2.83-1.86-6.09-1.86-9.78s.62-6.96,1.86-9.78c1.24-2.83,3.08-5.04,5.52-6.63,2.44-1.6,5.46-2.4,9.06-2.4s6.61.8,9.04,2.4c2.43,1.6,4.27,3.81,5.51,6.63Zm-1.23,9.78c0-3.13-.49-5.89-1.48-8.3-.99-2.41-2.47-4.29-4.44-5.64-1.97-1.35-4.44-2.03-7.4-2.03-2.96-.02-5.42.65-7.39,2.01-1.97,1.35-3.44,3.24-4.43,5.66-.99,2.42-1.5,5.19-1.53,8.32-.03,3.13.45,5.89,1.44,8.29.99,2.4,2.49,4.28,4.48,5.64,1.99,1.36,4.46,2.04,7.42,2.04,2.96.02,5.43-.66,7.4-2.02,1.97-1.36,3.45-3.25,4.44-5.66.99-2.41,1.48-5.18,1.48-8.3Zm33.59,4.54c0,2.06-.35,3.82-1.04,5.28-.69,1.46-1.59,2.66-2.7,3.57-1.1.92-2.3,1.6-3.59,2.03-1.29.44-2.53.65-3.71.65s-2.42-.22-3.7-.65c-1.28-.43-2.48-1.11-3.59-2.03-1.11-.92-2.02-2.11-2.71-3.57-.69-1.46-1.04-3.22-1.04-5.28v-22.6h-2.91v23.2c0,2.76.6,5.16,1.79,7.21,1.2,2.05,2.84,3.64,4.94,4.77,2.1,1.13,4.5,1.69,7.21,1.69s5.11-.57,7.21-1.71c2.1-1.14,3.75-2.73,4.94-4.78,1.2-2.05,1.79-4.44,1.79-7.19v-23.2h-2.91v22.6Zm35.14-11.59c0,1.86-.34,3.55-1.03,5.08-.69,1.53-1.68,2.8-2.97,3.81-1.3,1.01-2.85,1.66-4.65,1.94-.45.07-.88.12-1.29.15-.41.03-.79.05-1.14.05h-10.74v14.07h-2.88v-36.12h13.62c.35,0,.73.01,1.14.04.41.02.84.08,1.29.16,1.81.28,3.36.93,4.65,1.94,1.3,1.01,2.29,2.28,2.97,3.81.69,1.53,1.03,3.21,1.03,5.05Zm-3.04,0c0-1.24-.22-2.41-.65-3.52-.44-1.11-1.09-2.07-1.96-2.86-.87-.79-1.96-1.32-3.26-1.59-.4-.08-.8-.14-1.19-.18-.39-.03-.74-.05-1.04-.05h-10.69v16.4h10.69c.3,0,.65-.02,1.04-.05.39-.03.79-.08,1.19-.15,1.3-.27,2.39-.8,3.26-1.59.87-.79,1.52-1.75,1.96-2.87.43-1.12.65-2.3.65-3.54Z"/></svg>